REM MD5 b54270458a6cf0f2f08b3f474ea5facc
FILE "Registered User Demo 02 (Europe).bin" BINARY
  TRACK 01 MODE2/2352
    INDEX 01 00:00:00
  TRACK 02 AUDIO
    INDEX 00 28:49:27
    INDEX 01 28:51:27
  TRACK 03 AUDIO
    INDEX 00 34:25:26
    INDEX 01 34:27:26
REM LEADOUT 37:44:56
